<svg id="visual" viewBox="0 0 1920 1080" width="1920" height="1080" xmlns="http://www.w3.org/2000/svg" xmlns:xlink="http://www.w3.org/1999/xlink" version="1.1"><path d="M0 141L53.3 133.8C106.7 126.7 213.3 112.3 320 103.3C426.7 94.3 533.3 90.7 640 96.2C746.7 101.7 853.3 116.3 960 112.8C1066.7 109.3 1173.3 87.7 1280 75C1386.7 62.3 1493.3 58.7 1600 64C1706.7 69.3 1813.3 83.7 1866.7 90.8L1920 98L1920 0L1866.7 0C1813.3 0 1706.7 0 1600 0C1493.3 0 1386.7 0 1280 0C1173.3 0 1066.7 0 960 0C853.3 0 746.7 0 640 0C533.3 0 426.7 0 320 0C213.3 0 106.7 0 53.3 0L0 0Z" fill="#e1e3e6"></path><path d="M0 282L53.3 274.8C106.7 267.7 213.3 253.3 320 238.8C426.7 224.3 533.3 209.7 640 198.8C746.7 188 853.3 181 960 182.8C1066.7 184.7 1173.3 195.3 1280 186.3C1386.7 177.3 1493.3 148.7 1600 154.2C1706.7 159.7 1813.3 199.3 1866.7 219.2L1920 239L1920 96L1866.7 88.8C1813.3 81.7 1706.7 67.3 1600 62C1493.3 56.7 1386.7 60.3 1280 73C1173.3 85.7 1066.7 107.3 960 110.8C853.3 114.3 746.7 99.7 640 94.2C533.3 88.7 426.7 92.3 320 101.3C213.3 110.3 106.7 124.7 53.3 131.8L0 139Z" fill="#c0d1ed"></path><path d="M0 433L53.3 427.7C106.7 422.3 213.3 411.7 320 436.8C426.7 462 533.3 523 640 533.7C746.7 544.3 853.3 504.7 960 475.8C1066.7 447 1173.3 429 1280 423.7C1386.7 418.3 1493.3 425.7 1600 424C1706.7 422.3 1813.3 411.7 1866.7 406.3L1920 401L1920 237L1866.7 217.2C1813.3 197.3 1706.7 157.7 1600 152.2C1493.3 146.7 1386.7 175.3 1280 184.3C1173.3 193.3 1066.7 182.7 960 180.8C853.3 179 746.7 186 640 196.8C533.3 207.7 426.7 222.3 320 236.8C213.3 251.3 106.7 265.7 53.3 272.8L0 280Z" fill="#a0bef4"></path><path d="M0 476L53.3 470.7C106.7 465.3 213.3 454.7 320 487.2C426.7 519.7 533.3 595.3 640 613.3C746.7 631.3 853.3 591.7 960 559.2C1066.7 526.7 1173.3 501.3 1280 495.8C1386.7 490.3 1493.3 504.7 1600 502.8C1706.7 501 1813.3 483 1866.7 474L1920 465L1920 399L1866.7 404.3C1813.3 409.7 1706.7 420.3 1600 422C1493.3 423.7 1386.7 416.3 1280 421.7C1173.3 427 1066.7 445 960 473.8C853.3 502.7 746.7 542.3 640 531.7C533.3 521 426.7 460 320 434.8C213.3 409.7 106.7 420.3 53.3 425.7L0 431Z" fill="#81abf9"></path><path d="M0 638L53.3 634.5C106.7 631 213.3 624 320 649.2C426.7 674.3 533.3 731.7 640 753.2C746.7 774.7 853.3 760.3 960 735.2C1066.7 710 1173.3 674 1280 648.8C1386.7 623.7 1493.3 609.3 1600 611.2C1706.7 613 1813.3 631 1866.7 640L1920 649L1920 463L1866.7 472C1813.3 481 1706.7 499 1600 500.8C1493.3 502.7 1386.7 488.3 1280 493.8C1173.3 499.3 1066.7 524.7 960 557.2C853.3 589.7 746.7 629.3 640 611.3C533.3 593.3 426.7 517.7 320 485.2C213.3 452.7 106.7 463.3 53.3 468.7L0 474Z" fill="#6197fd"></path><path d="M0 951L53.3 943.8C106.7 936.7 213.3 922.3 320 920.7C426.7 919 533.3 930 640 937.2C746.7 944.3 853.3 947.7 960 949.3C1066.7 951 1173.3 951 1280 938.5C1386.7 926 1493.3 901 1600 911.8C1706.7 922.7 1813.3 969.3 1866.7 992.7L1920 1016L1920 647L1866.7 638C1813.3 629 1706.7 611 1600 609.2C1493.3 607.3 1386.7 621.7 1280 646.8C1173.3 672 1066.7 708 960 733.2C853.3 758.3 746.7 772.7 640 751.2C533.3 729.7 426.7 672.3 320 647.2C213.3 622 106.7 629 53.3 632.5L0 636Z" fill="#3e82ff"></path><path d="M0 1081L53.3 1081C106.7 1081 213.3 1081 320 1081C426.7 1081 533.3 1081 640 1081C746.7 1081 853.3 1081 960 1081C1066.7 1081 1173.3 1081 1280 1081C1386.7 1081 1493.3 1081 1600 1081C1706.7 1081 1813.3 1081 1866.7 1081L1920 1081L1920 1014L1866.7 990.7C1813.3 967.3 1706.7 920.7 1600 909.8C1493.3 899 1386.7 924 1280 936.5C1173.3 949 1066.7 949 960 947.3C853.3 945.7 746.7 942.3 640 935.2C533.3 928 426.7 917 320 918.7C213.3 920.3 106.7 934.7 53.3 941.8L0 949Z" fill="#006cff"></path></svg>