<svg id="visual" viewBox="0 0 1920 1080" width="1920" height="1080" xmlns="http://www.w3.org/2000/svg" xmlns:xlink="http://www.w3.org/1999/xlink" version="1.1"><path d="M0 66L53.3 66C106.7 66 213.3 66 320 60.5C426.7 55 533.3 44 640 40.3C746.7 36.7 853.3 40.3 960 42.2C1066.7 44 1173.3 44 1280 45.8C1386.7 47.7 1493.3 51.3 1600 55C1706.7 58.7 1813.3 62.3 1866.7 64.2L1920 66L1920 0L1866.7 0C1813.3 0 1706.7 0 1600 0C1493.3 0 1386.7 0 1280 0C1173.3 0 1066.7 0 960 0C853.3 0 746.7 0 640 0C533.3 0 426.7 0 320 0C213.3 0 106.7 0 53.3 0L0 0Z" fill="#003eff"></path><path d="M0 98L53.3 101.7C106.7 105.3 213.3 112.7 320 114.5C426.7 116.3 533.3 112.7 640 103.7C746.7 94.7 853.3 80.3 960 75C1066.7 69.7 1173.3 73.3 1280 75.2C1386.7 77 1493.3 77 1600 84.2C1706.7 91.3 1813.3 105.7 1866.7 112.8L1920 120L1920 64L1866.7 62.2C1813.3 60.3 1706.7 56.7 1600 53C1493.3 49.3 1386.7 45.7 1280 43.8C1173.3 42 1066.7 42 960 40.2C853.3 38.3 746.7 34.7 640 38.3C533.3 42 426.7 53 320 58.5C213.3 64 106.7 64 53.3 64L0 64Z" fill="#2a6dff"></path><path d="M0 120L53.3 130.8C106.7 141.7 213.3 163.3 320 165.2C426.7 167 533.3 149 640 138.2C746.7 127.3 853.3 123.7 960 121.8C1066.7 120 1173.3 120 1280 118.2C1386.7 116.3 1493.3 112.7 1600 119.8C1706.7 127 1813.3 145 1866.7 154L1920 163L1920 118L1866.7 110.8C1813.3 103.7 1706.7 89.3 1600 82.2C1493.3 75 1386.7 75 1280 73.2C1173.3 71.3 1066.7 67.7 960 73C853.3 78.3 746.7 92.7 640 101.7C533.3 110.7 426.7 114.3 320 112.5C213.3 110.7 106.7 103.3 53.3 99.7L0 96Z" fill="#5f93ff"></path><path d="M0 174L53.3 181.2C106.7 188.3 213.3 202.7 320 206.2C426.7 209.7 533.3 202.3 640 195.2C746.7 188 853.3 181 960 182.8C1066.7 184.7 1173.3 195.3 1280 193.5C1386.7 191.7 1493.3 177.3 1600 184.5C1706.7 191.7 1813.3 220.3 1866.7 234.7L1920 249L1920 161L1866.7 152C1813.3 143 1706.7 125 1600 117.8C1493.3 110.7 1386.7 114.3 1280 116.2C1173.3 118 1066.7 118 960 119.8C853.3 121.7 746.7 125.3 640 136.2C533.3 147 426.7 165 320 163.2C213.3 161.3 106.7 139.7 53.3 128.8L0 118Z" fill="#93b6f8"></path><path d="M0 357L53.3 375C106.7 393 213.3 429 320 420C426.7 411 533.3 357 640 346.3C746.7 335.7 853.3 368.3 960 390C1066.7 411.7 1173.3 422.3 1280 436.7C1386.7 451 1493.3 469 1600 461.8C1706.7 454.7 1813.3 422.3 1866.7 406.2L1920 390L1920 247L1866.7 232.7C1813.3 218.3 1706.7 189.7 1600 182.5C1493.3 175.3 1386.7 189.7 1280 191.5C1173.3 193.3 1066.7 182.7 960 180.8C853.3 179 746.7 186 640 193.2C533.3 200.3 426.7 207.7 320 204.2C213.3 200.7 106.7 186.3 53.3 179.2L0 172Z" fill="#cad7ec"></path><path d="M0 390L53.3 408C106.7 426 213.3 462 320 451.2C426.7 440.3 533.3 382.7 640 375.5C746.7 368.3 853.3 411.7 960 435C1066.7 458.3 1173.3 461.7 1280 474.2C1386.7 486.7 1493.3 508.3 1600 499.3C1706.7 490.3 1813.3 450.7 1866.7 430.8L1920 411L1920 388L1866.7 404.2C1813.3 420.3 1706.7 452.7 1600 459.8C1493.3 467 1386.7 449 1280 434.7C1173.3 420.3 1066.7 409.7 960 388C853.3 366.3 746.7 333.7 640 344.3C533.3 355 426.7 409 320 418C213.3 427 106.7 391 53.3 373L0 355Z" fill="#e1e3e6"></path><path d="M0 498L53.3 505.2C106.7 512.3 213.3 526.7 320 521.2C426.7 515.7 533.3 490.3 640 494C746.7 497.7 853.3 530.3 960 541.2C1066.7 552 1173.3 541 1280 550C1386.7 559 1493.3 588 1600 582.7C1706.7 577.3 1813.3 537.7 1866.7 517.8L1920 498L1920 409L1866.7 428.8C1813.3 448.7 1706.7 488.3 1600 497.3C1493.3 506.3 1386.7 484.7 1280 472.2C1173.3 459.7 1066.7 456.3 960 433C853.3 409.7 746.7 366.3 640 373.5C533.3 380.7 426.7 438.3 320 449.2C213.3 460 106.7 424 53.3 406L0 388Z" fill="#e1e3e6"></path><path d="M0 725L53.3 734C106.7 743 213.3 761 320 762.7C426.7 764.3 533.3 749.7 640 749.7C746.7 749.7 853.3 764.3 960 760.8C1066.7 757.3 1173.3 735.7 1280 733.8C1386.7 732 1493.3 750 1600 762.5C1706.7 775 1813.3 782 1866.7 785.5L1920 789L1920 496L1866.7 515.8C1813.3 535.7 1706.7 575.3 1600 580.7C1493.3 586 1386.7 557 1280 548C1173.3 539 1066.7 550 960 539.2C853.3 528.3 746.7 495.7 640 492C533.3 488.3 426.7 513.7 320 519.2C213.3 524.7 106.7 510.3 53.3 503.2L0 496Z" fill="#cad7ec"></path><path d="M0 789L53.3 803.5C106.7 818 213.3 847 320 854.3C426.7 861.7 533.3 847.3 640 841.8C746.7 836.3 853.3 839.7 960 827C1066.7 814.3 1173.3 785.7 1280 793C1386.7 800.3 1493.3 843.7 1600 868.8C1706.7 894 1813.3 901 1866.7 904.5L1920 908L1920 787L1866.7 783.5C1813.3 780 1706.7 773 1600 760.5C1493.3 748 1386.7 730 1280 731.8C1173.3 733.7 1066.7 755.3 960 758.8C853.3 762.3 746.7 747.7 640 747.7C533.3 747.7 426.7 762.3 320 760.7C213.3 759 106.7 741 53.3 732L0 723Z" fill="#93b6f8"></path><path d="M0 930L53.3 931.8C106.7 933.7 213.3 937.3 320 937.3C426.7 937.3 533.3 933.7 640 942.7C746.7 951.7 853.3 973.3 960 982.3C1066.7 991.3 1173.3 987.7 1280 991.2C1386.7 994.7 1493.3 1005.3 1600 1001.7C1706.7 998 1813.3 980 1866.7 971L1920 962L1920 906L1866.7 902.5C1813.3 899 1706.7 892 1600 866.8C1493.3 841.7 1386.7 798.3 1280 791C1173.3 783.7 1066.7 812.3 960 825C853.3 837.7 746.7 834.3 640 839.8C533.3 845.3 426.7 859.7 320 852.3C213.3 845 106.7 816 53.3 801.5L0 787Z" fill="#5f93ff"></path><path d="M0 1005L53.3 1001.5C106.7 998 213.3 991 320 992.8C426.7 994.7 533.3 1005.3 640 1016.2C746.7 1027 853.3 1038 960 1039.8C1066.7 1041.7 1173.3 1034.3 1280 1034.3C1386.7 1034.3 1493.3 1041.7 1600 1041.7C1706.7 1041.7 1813.3 1034.3 1866.7 1030.7L1920 1027L1920 960L1866.7 969C1813.3 978 1706.7 996 1600 999.7C1493.3 1003.3 1386.7 992.7 1280 989.2C1173.3 985.7 1066.7 989.3 960 980.3C853.3 971.3 746.7 949.7 640 940.7C533.3 931.7 426.7 935.3 320 935.3C213.3 935.3 106.7 931.7 53.3 929.8L0 928Z" fill="#2a6dff"></path><path d="M0 1081L53.3 1081C106.7 1081 213.3 1081 320 1081C426.7 1081 533.3 1081 640 1081C746.7 1081 853.3 1081 960 1081C1066.7 1081 1173.3 1081 1280 1081C1386.7 1081 1493.3 1081 1600 1081C1706.7 1081 1813.3 1081 1866.7 1081L1920 1081L1920 1025L1866.7 1028.7C1813.3 1032.3 1706.7 1039.7 1600 1039.7C1493.3 1039.7 1386.7 1032.3 1280 1032.3C1173.3 1032.3 1066.7 1039.7 960 1037.8C853.3 1036 746.7 1025 640 1014.2C533.3 1003.3 426.7 992.7 320 990.8C213.3 989 106.7 996 53.3 999.5L0 1003Z" fill="#003eff"></path></svg>