<svg id="visual" viewBox="0 0 1920 1080" width="1920" height="1080" xmlns="http://www.w3.org/2000/svg" xmlns:xlink="http://www.w3.org/1999/xlink" version="1.1"><path d="M0 77L29.2 86C58.3 95 116.7 113 174.8 127.3C233 141.7 291 152.3 349.2 145C407.3 137.7 465.7 112.3 523.8 112.3C582 112.3 640 137.7 698.2 145C756.3 152.3 814.7 141.7 872.8 132.7C931 123.7 989 116.3 1047.2 123.5C1105.3 130.7 1163.7 152.3 1221.8 156C1280 159.7 1338 145.3 1396.2 139.8C1454.3 134.3 1512.7 137.7 1570.8 126.8C1629 116 1687 91 1745.2 85.7C1803.3 80.3 1861.7 94.7 1890.8 101.8L1920 109L1920 0L1890.8 0C1861.7 0 1803.3 0 1745.2 0C1687 0 1629 0 1570.8 0C1512.7 0 1454.3 0 1396.2 0C1338 0 1280 0 1221.8 0C1163.7 0 1105.3 0 1047.2 0C989 0 931 0 872.8 0C814.7 0 756.3 0 698.2 0C640 0 582 0 523.8 0C465.7 0 407.3 0 349.2 0C291 0 233 0 174.8 0C116.7 0 58.3 0 29.2 0L0 0Z" fill="#003eff"></path><path d="M0 509L29.2 478.3C58.3 447.7 116.7 386.3 174.8 370C233 353.7 291 382.3 349.2 420.2C407.3 458 465.7 505 523.8 535.7C582 566.3 640 580.7 698.2 569.8C756.3 559 814.7 523 872.8 515.8C931 508.7 989 530.3 1047.2 517.7C1105.3 505 1163.7 458 1221.8 429.2C1280 400.3 1338 389.7 1396.2 402.3C1454.3 415 1512.7 451 1570.8 425.8C1629 400.7 1687 314.3 1745.2 307.2C1803.3 300 1861.7 372 1890.8 408L1920 444L1920 107L1890.8 99.8C1861.7 92.7 1803.3 78.3 1745.2 83.7C1687 89 1629 114 1570.8 124.8C1512.7 135.7 1454.3 132.3 1396.2 137.8C1338 143.3 1280 157.7 1221.8 154C1163.7 150.3 1105.3 128.7 1047.2 121.5C989 114.3 931 121.7 872.8 130.7C814.7 139.7 756.3 150.3 698.2 143C640 135.7 582 110.3 523.8 110.3C465.7 110.3 407.3 135.7 349.2 143C291 150.3 233 139.7 174.8 125.3C116.7 111 58.3 93 29.2 84L0 75Z" fill="#2f71ff"></path><path d="M0 703L29.2 721C58.3 739 116.7 775 174.8 789.3C233 803.7 291 796.3 349.2 785.5C407.3 774.7 465.7 760.3 523.8 776.7C582 793 640 840 698.2 850.8C756.3 861.7 814.7 836.3 872.8 820C931 803.7 989 796.3 1047.2 780.2C1105.3 764 1163.7 739 1221.8 721C1280 703 1338 692 1396.2 693.8C1454.3 695.7 1512.7 710.3 1570.8 719.3C1629 728.3 1687 731.7 1745.2 710C1803.3 688.3 1861.7 641.7 1890.8 618.3L1920 595L1920 442L1890.8 406C1861.7 370 1803.3 298 1745.2 305.2C1687 312.3 1629 398.7 1570.8 423.8C1512.7 449 1454.3 413 1396.2 400.3C1338 387.7 1280 398.3 1221.8 427.2C1163.7 456 1105.3 503 1047.2 515.7C989 528.3 931 506.7 872.8 513.8C814.7 521 756.3 557 698.2 567.8C640 578.7 582 564.3 523.8 533.7C465.7 503 407.3 456 349.2 418.2C291 380.3 233 351.7 174.8 368C116.7 384.3 58.3 445.7 29.2 476.3L0 507Z" fill="#699aff"></path><path d="M0 984L29.2 978.5C58.3 973 116.7 962 174.8 944C233 926 291 901 349.2 901C407.3 901 465.7 926 523.8 947.5C582 969 640 987 698.2 985.3C756.3 983.7 814.7 962.3 872.8 955.2C931 948 989 955 1047.2 949.5C1105.3 944 1163.7 926 1221.8 929.7C1280 933.3 1338 958.7 1396.2 953.3C1454.3 948 1512.7 912 1570.8 915.5C1629 919 1687 962 1745.2 960.2C1803.3 958.3 1861.7 911.7 1890.8 888.3L1920 865L1920 593L1890.8 616.3C1861.7 639.7 1803.3 686.3 1745.2 708C1687 729.7 1629 726.3 1570.8 717.3C1512.7 708.3 1454.3 693.7 1396.2 691.8C1338 690 1280 701 1221.8 719C1163.7 737 1105.3 762 1047.2 778.2C989 794.3 931 801.7 872.8 818C814.7 834.3 756.3 859.7 698.2 848.8C640 838 582 791 523.8 774.7C465.7 758.3 407.3 772.7 349.2 783.5C291 794.3 233 801.7 174.8 787.3C116.7 773 58.3 737 29.2 719L0 701Z" fill="#a3c0f4"></path><path d="M0 1081L29.2 1081C58.3 1081 116.7 1081 174.8 1081C233 1081 291 1081 349.2 1081C407.3 1081 465.7 1081 523.8 1081C582 1081 640 1081 698.2 1081C756.3 1081 814.7 1081 872.8 1081C931 1081 989 1081 1047.2 1081C1105.3 1081 1163.7 1081 1221.8 1081C1280 1081 1338 1081 1396.2 1081C1454.3 1081 1512.7 1081 1570.8 1081C1629 1081 1687 1081 1745.2 1081C1803.3 1081 1861.7 1081 1890.8 1081L1920 1081L1920 863L1890.8 886.3C1861.7 909.7 1803.3 956.3 1745.2 958.2C1687 960 1629 917 1570.8 913.5C1512.7 910 1454.3 946 1396.2 951.3C1338 956.7 1280 931.3 1221.8 927.7C1163.7 924 1105.3 942 1047.2 947.5C989 953 931 946 872.8 953.2C814.7 960.3 756.3 981.7 698.2 983.3C640 985 582 967 523.8 945.5C465.7 924 407.3 899 349.2 899C291 899 233 924 174.8 942C116.7 960 58.3 971 29.2 976.5L0 982Z" fill="#e1e3e6"></path></svg>